<svg width="18" height="16" viewBox="0 0 18 16" fill="none" xmlns="http://www.w3.org/2000/svg">
<path d="M17.7806 8.53056L11.0306 15.2806C10.8899 15.4213 10.699 15.5003 10.5 15.5003C10.301 15.5003 10.1101 15.4213 9.96937 15.2806C9.82864 15.1398 9.74958 14.949 9.74958 14.7499C9.74958 14.5509 9.82864 14.36 9.96937 14.2193L15.4397 8.74993L0.749999 8.74993C0.551086 8.74993 0.360321 8.67091 0.219669 8.53026C0.0790164 8.38961 -1.34619e-06 8.19884 -1.31141e-06 7.99993C-1.27664e-06 7.80102 0.0790165 7.61025 0.219669 7.4696C0.360321 7.32895 0.551086 7.24993 0.749999 7.24993L15.4397 7.24993L9.96937 1.78056C9.82864 1.63982 9.74958 1.44895 9.74958 1.24993C9.74958 1.05091 9.82864 0.860036 9.96937 0.719305C10.1101 0.578575 10.301 0.499514 10.5 0.499514C10.699 0.499514 10.8899 0.578575 11.0306 0.719306L17.7806 7.46931C17.8504 7.53896 17.9057 7.62168 17.9434 7.71273C17.9812 7.80378 18.0006 7.90137 18.0006 7.99993C18.0006 8.09849 17.9812 8.19609 17.9434 8.28714C17.9057 8.37819 17.8504 8.4609 17.7806 8.53056Z" fill="#242424"/>
</svg>
