<svg width="15" height="14" viewBox="0 0 15 14" fill="none" xmlns="http://www.w3.org/2000/svg">
<path d="M0.183789 6.33804L5.80879 0.713042C5.92606 0.595767 6.08513 0.529882 6.25098 0.529882C6.41683 0.529882 6.57589 0.595767 6.69317 0.713042C6.81044 0.830318 6.87633 0.989377 6.87633 1.15523C6.87633 1.32108 6.81044 1.48014 6.69317 1.59742L2.13457 6.15523L14.376 6.15523C14.5417 6.15523 14.7007 6.22108 14.8179 6.33829C14.9351 6.4555 15.001 6.61447 15.001 6.78023C15.001 6.94599 14.9351 7.10496 14.8179 7.22217C14.7007 7.33938 14.5417 7.40523 14.376 7.40523L2.13457 7.40523L6.69316 11.963C6.81044 12.0803 6.87632 12.2394 6.87632 12.4052C6.87632 12.5711 6.81044 12.7301 6.69316 12.8474C6.57589 12.9647 6.41683 13.0306 6.25098 13.0306C6.08512 13.0306 5.92606 12.9647 5.80879 12.8474L0.183789 7.22242C0.125679 7.16437 0.0795794 7.09544 0.0481267 7.01957C0.0166741 6.94369 0.000485959 6.86236 0.000485967 6.78023C0.000485974 6.6981 0.0166741 6.61677 0.0481268 6.54089C0.0795795 6.46502 0.125679 6.39609 0.183789 6.33804Z" fill="#242424"/>
</svg>
