<svg width="20" height="20" viewBox="0 0 20 20" fill="none" xmlns="http://www.w3.org/2000/svg">
<path fill-rule="evenodd" clip-rule="evenodd" d="M18.7973 17.8188L14.469 13.4914C17.0752 10.3626 16.7594 5.73732 13.7522 2.99176C10.745 0.246197 6.11022 0.351531 3.23087 3.23087C0.351531 6.11022 0.246197 10.745 2.99176 13.7522C5.73732 16.7594 10.3626 17.0752 13.4914 14.469L17.8188 18.7973C18.089 19.0676 18.5271 19.0676 18.7973 18.7973C19.0676 18.5271 19.0676 18.089 18.7973 17.8188V17.8188ZM2.40223 8.62625C2.40223 5.18882 5.18882 2.40223 8.62625 2.40223C12.0637 2.40223 14.8503 5.18882 14.8503 8.62625C14.8503 12.0637 12.0637 14.8503 8.62625 14.8503C5.1904 14.8465 2.40604 12.0621 2.40223 8.62625V8.62625Z" fill="#242424"/>
</svg>
