<svg width="40" height="40" viewBox="0 0 40 40" fill="none" xmlns="http://www.w3.org/2000/svg">
<path fill-rule="evenodd" clip-rule="evenodd" d="M29.4084 28.6276C27.9806 26.1591 25.7803 24.3891 23.2125 23.5501C25.8232 21.9959 27.0738 18.8889 26.2678 15.9594C25.4619 13.03 22.798 11 19.7597 11C16.7213 11 14.0574 13.03 13.2515 15.9594C12.4455 18.8889 13.6961 21.9959 16.3068 23.5501C13.739 24.3882 11.5387 26.1582 10.1109 28.6276C9.96836 28.86 9.96318 29.1515 10.0974 29.3888C10.2316 29.6262 10.484 29.772 10.7567 29.7696C11.0293 29.7673 11.2792 29.6172 11.4093 29.3776C13.1756 26.3251 16.2975 24.5026 19.7597 24.5026C23.2218 24.5026 26.3437 26.3251 28.11 29.3776C28.2401 29.6172 28.49 29.7673 28.7626 29.7696C29.0353 29.772 29.2877 29.6262 29.4219 29.3888C29.5561 29.1515 29.5509 28.86 29.4084 28.6276ZM14.5097 17.7526C14.5097 14.8531 16.8602 12.5026 19.7597 12.5026C22.6591 12.5026 25.0097 14.8531 25.0097 17.7526C25.0097 20.652 22.6591 23.0026 19.7597 23.0026C16.8614 22.9995 14.5128 20.6508 14.5097 17.7526Z" fill="#0D1C12"/>
</svg>
