<svg width="40" height="40" viewBox="0 0 40 40" fill="none" xmlns="http://www.w3.org/2000/svg">
<path fill-rule="evenodd" clip-rule="evenodd" d="M28 12H11.5C10.6716 12 10 12.6716 10 13.5V27C10 27.8284 10.6716 28.5 11.5 28.5H28C28.8284 28.5 29.5 27.8284 29.5 27V13.5C29.5 12.6716 28.8284 12 28 12ZM28 27H11.5V13.5H28V27ZM24.25 16.5C24.25 18.9853 22.2353 21 19.75 21C17.2647 21 15.25 18.9853 15.25 16.5C15.25 16.0858 15.5858 15.75 16 15.75C16.4142 15.75 16.75 16.0858 16.75 16.5C16.75 18.1569 18.0931 19.5 19.75 19.5C21.4069 19.5 22.75 18.1569 22.75 16.5C22.75 16.0858 23.0858 15.75 23.5 15.75C23.9142 15.75 24.25 16.0858 24.25 16.5Z" fill="#0D1C12"/>
<rect x="19" y="2" width="19" height="19" rx="9.5" fill="#14A751"/>
<rect x="19" y="2" width="19" height="19" rx="9.5" stroke="white" stroke-width="2"/>
<path d="M28.136 16V8.08H26.444V7.06H29.324V16H28.136Z" fill="white"/>
</svg>
