<svg width="20" height="20" viewBox="0 0 20 20" fill="none" xmlns="http://www.w3.org/2000/svg">
<g clip-path="url(#clip0_160_54)">
<path fill-rule="evenodd" clip-rule="evenodd" d="M17.9422 17.533L14.0305 13.6221C16.3858 10.7944 16.1004 6.61433 13.3826 4.13301C10.6649 1.65169 6.47612 1.74689 3.87389 4.34911C1.27167 6.95134 1.17647 11.1401 3.65779 13.8578C6.13911 16.5756 10.3192 16.861 13.1469 14.5057L17.0578 18.4174C17.302 18.6616 17.698 18.6616 17.9422 18.4174C18.1864 18.1732 18.1864 17.7772 17.9422 17.533ZM3.125 9.22522C3.125 6.11862 5.6434 3.60022 8.75 3.60022C11.8566 3.60022 14.375 6.11862 14.375 9.22522C14.375 12.3318 11.8566 14.8502 8.75 14.8502C5.64483 14.8468 3.12844 12.3304 3.125 9.22522Z" fill="#6A6A6A"/>
</g>
<defs>
<clipPath id="clip0_160_54">
<rect width="20" height="20" fill="white"/>
</clipPath>
</defs>
</svg>
