<svg width="21" height="20" viewBox="0 0 21 20" fill="none" xmlns="http://www.w3.org/2000/svg">
<path fill-rule="evenodd" clip-rule="evenodd" d="M21 18.5C21 19.0523 20.6642 19.5 20.25 19.5L0.75 19.5C0.335787 19.5 3.91405e-08 19.0523 8.74227e-08 18.5C1.35705e-07 17.9477 0.335787 17.5 0.75 17.5L20.25 17.5C20.6642 17.5 21 17.9477 21 18.5Z" fill="white"/>
<path fill-rule="evenodd" clip-rule="evenodd" d="M10.5 0.500001C11.0128 0.500001 11.4286 0.919734 11.4286 1.4375L11.4286 12.2992L15.4148 8.27459C15.7775 7.90847 16.3654 7.90847 16.728 8.27459C17.0907 8.6407 17.0907 9.2343 16.728 9.60041L11.1566 15.2254C10.794 15.5915 10.206 15.5915 9.8434 15.2254L4.27197 9.60041C3.90934 9.2343 3.90934 8.6407 4.27197 8.27459C4.6346 7.90847 5.22254 7.90847 5.58517 8.27459L9.57143 12.2992L9.57143 1.4375C9.57143 0.919734 9.98717 0.500001 10.5 0.500001Z" fill="white"/>
</svg>
