<svg width="14" height="15" viewBox="0 0 14 15" fill="none" xmlns="http://www.w3.org/2000/svg">
<path fill-rule="evenodd" clip-rule="evenodd" d="M9.5 0.780151C9.77614 0.780151 10 1.00401 10 1.28015V5.28015C10 5.55629 9.77614 5.78015 9.5 5.78015C9.22386 5.78015 9 5.55629 9 5.28015V3.78015H0.5C0.223858 3.78015 0 3.55629 0 3.28015C0 3.00401 0.223858 2.78015 0.5 2.78015H9V1.28015C9 1.00401 9.22386 0.780151 9.5 0.780151ZM11 3.28015C11 3.00401 11.2239 2.78015 11.5 2.78015H13.5C13.7761 2.78015 14 3.00401 14 3.28015C14 3.55629 13.7761 3.78015 13.5 3.78015H11.5C11.2239 3.78015 11 3.55629 11 3.28015ZM4.5 5.28015C4.77614 5.28015 5 5.50401 5 5.78015V7.28015H13.5C13.7761 7.28015 14 7.50401 14 7.78015C14 8.05629 13.7761 8.28015 13.5 8.28015H5V9.78015C5 10.0563 4.77614 10.2802 4.5 10.2802C4.22386 10.2802 4 10.0563 4 9.78015V5.78015C4 5.50401 4.22386 5.28015 4.5 5.28015ZM0 7.78015C0 7.50401 0.223858 7.28015 0.5 7.28015H2.5C2.77614 7.28015 3 7.50401 3 7.78015C3 8.05629 2.77614 8.28015 2.5 8.28015H0.5C0.223858 8.28015 0 8.05629 0 7.78015ZM9.5 9.78015C9.77614 9.78015 10 10.004 10 10.2802V14.2802C10 14.5563 9.77614 14.7802 9.5 14.7802C9.22386 14.7802 9 14.5563 9 14.2802V12.7802H0.5C0.223858 12.7802 0 12.5563 0 12.2802C0 12.004 0.223858 11.7802 0.5 11.7802H9V10.2802C9 10.004 9.22386 9.78015 9.5 9.78015ZM11 12.2802C11 12.004 11.2239 11.7802 11.5 11.7802H13.5C13.7761 11.7802 14 12.004 14 12.2802C14 12.5563 13.7761 12.7802 13.5 12.7802H11.5C11.2239 12.7802 11 12.5563 11 12.2802Z" fill="#242424"/>
</svg>
