<svg width="22" height="24" viewBox="0 0 22 24" fill="none" xmlns="http://www.w3.org/2000/svg">
<path d="M18.1061 2.93146C16.7024 1.52458 14.9127 0.566102 12.9637 0.177504C11.0147 -0.211094 8.9942 -0.0123158 7.15831 0.748646C5.32241 1.50961 3.75376 2.79849 2.65118 4.45194C1.54859 6.10538 0.961716 8.04895 0.964928 10.0363C0.959515 11.3556 1.21582 12.6628 1.71901 13.8824C2.22219 15.1019 2.96227 16.2096 3.8964 17.1412L10.5812 23.826C10.6364 23.8812 10.7018 23.9249 10.7739 23.9548C10.846 23.9846 10.9232 24 11.0012 24C11.0793 24 11.1565 23.9846 11.2286 23.9548C11.3006 23.9249 11.3661 23.8812 11.4213 23.826L18.1061 17.1412C19.9836 15.2533 21.0376 12.6989 21.0376 10.0363C21.0376 7.37373 19.9836 4.81938 18.1061 2.93146ZM11.0012 16.4018C7.45702 16.4018 4.5736 13.5184 4.5736 9.97415C4.5736 6.42993 7.45702 3.54646 11.0012 3.54646C14.5455 3.54646 17.4289 6.42988 17.4289 9.97415C17.4289 13.5184 14.5455 16.4018 11.0012 16.4018Z" fill="#D91C23"/>
</svg>
