<svg width="24" height="24" viewBox="0 0 24 24" fill="none" xmlns="http://www.w3.org/2000/svg">
<path d="M12.1786 14.75C11.8038 14.75 11.5 14.1344 11.5 13.375C11.5 12.6156 11.8038 12 12.1786 12C12.5533 12 12.8571 12.6156 12.8571 13.375C12.8571 14.1344 12.5533 14.75 12.1786 14.75Z" fill="black"/>
<path d="M15.3375 1.16813C15.4861 1.29871 15.5714 1.4882 15.5714 1.6875V2.375H16.25C17.3743 2.375 18.2857 3.29842 18.2857 4.4375V21.625H20.3214C20.6962 21.625 21 21.9328 21 22.3125C21 22.6922 20.6962 23 20.3214 23H2.67857C2.30381 23 2 22.6922 2 22.3125C2 21.9328 2.30381 21.625 2.67857 21.625H4.71429V3.0625C4.71429 2.72037 4.9626 2.4303 5.29689 2.38191L14.7969 1.00691C14.9916 0.978729 15.1889 1.03755 15.3375 1.16813ZM16.25 3.75H15.5714V21.625H16.9286V4.4375C16.9286 4.05781 16.6248 3.75 16.25 3.75ZM6.07143 3.65877V21.625H14.2143V2.4802L6.07143 3.65877Z" fill="black"/>
</svg>
