<svg width="19" height="20" viewBox="0 0 19 20" fill="none" xmlns="http://www.w3.org/2000/svg">
<path fill-rule="evenodd" clip-rule="evenodd" d="M19 10C19 15.2467 14.7467 19.5 9.5 19.5C4.25329 19.5 0 15.2467 0 10C0 4.75329 4.25329 0.5 9.5 0.5C14.7467 0.5 19 4.75329 19 10ZM9.8406 7.51334C8.91658 7.89767 7.06986 8.69314 4.30041 9.89974C3.8507 10.0786 3.61512 10.2535 3.59367 10.4246C3.55743 10.7137 3.91948 10.8276 4.4125 10.9826C4.47956 11.0037 4.54905 11.0255 4.62028 11.0487C5.10533 11.2063 5.75782 11.3908 6.09702 11.3981C6.4047 11.4048 6.74812 11.2779 7.12725 11.0176C9.71483 9.2709 11.0505 8.38804 11.1344 8.36901C11.1936 8.35558 11.2756 8.33869 11.3311 8.38807C11.3867 8.43744 11.3812 8.53094 11.3753 8.55603C11.3394 8.70893 9.91827 10.0302 9.18281 10.7139C8.95353 10.9271 8.79089 11.0783 8.75764 11.1128C8.68317 11.1902 8.60726 11.2633 8.53431 11.3337C8.08369 11.7681 7.74576 12.0938 8.55302 12.6258C8.94096 12.8815 9.25138 13.0929 9.56107 13.3038C9.89929 13.5341 10.2366 13.7638 10.6731 14.0499C10.7843 14.1228 10.8905 14.1985 10.9939 14.2723C11.3876 14.5529 11.7412 14.805 12.178 14.7648C12.4319 14.7414 12.6941 14.5027 12.8273 13.7908C13.142 12.1083 13.7606 8.46297 13.9036 6.96079C13.9161 6.82918 13.9004 6.66075 13.8877 6.58681C13.875 6.51287 13.8486 6.40752 13.7525 6.32954C13.6387 6.23718 13.463 6.2177 13.3844 6.21909C13.0271 6.22538 12.4789 6.416 9.8406 7.51334Z" fill="#24A1DF"/>
</svg>
