<svg width="20" height="17" viewBox="0 0 20 17" fill="none" xmlns="http://www.w3.org/2000/svg">
<path fill-rule="evenodd" clip-rule="evenodd" d="M18 0H1.5C0.671573 0 0 0.671573 0 1.5V15C0 15.8284 0.671573 16.5 1.5 16.5H18C18.8284 16.5 19.5 15.8284 19.5 15V1.5C19.5 0.671573 18.8284 0 18 0ZM18 15H1.5V1.5H18V15ZM14.25 4.5C14.25 6.98528 12.2353 9 9.75 9C7.26472 9 5.25 6.98528 5.25 4.5C5.25 4.08579 5.58579 3.75 6 3.75C6.41421 3.75 6.75 4.08579 6.75 4.5C6.75 6.15685 8.09315 7.5 9.75 7.5C11.4069 7.5 12.75 6.15685 12.75 4.5C12.75 4.08579 13.0858 3.75 13.5 3.75C13.9142 3.75 14.25 4.08579 14.25 4.5Z" fill="#0D1C12"/>
</svg>
