<svg width="19" height="20" viewBox="0 0 19 20" fill="none" xmlns="http://www.w3.org/2000/svg">
<path fill-rule="evenodd" clip-rule="evenodd" d="M9.53628 17.744C8.12148 17.744 6.73842 17.3648 5.53222 16.6516L5.24654 16.48L2.27184 17.2565L3.06539 14.3674L2.87947 14.0695C2.09045 12.8236 1.6778 11.3836 1.6778 9.90746C1.6778 5.60097 5.20573 2.08898 9.54081 2.08898C11.6403 2.08898 13.6129 2.90603 15.1002 4.38216C16.5831 5.86279 17.3993 7.82644 17.3993 9.91649C17.3947 14.2365 13.8668 17.744 9.53628 17.744ZM12.2344 11.1173C12.452 11.1985 13.6129 11.7673 13.8487 11.8847C14.0845 12.002 14.2432 12.0607 14.3021 12.16C14.3611 12.2593 14.3611 12.7288 14.1661 13.2795C13.9666 13.8302 13.0234 14.3313 12.5699 14.399C12.1618 14.4577 11.6494 14.4848 11.0826 14.3042C10.7379 14.1959 10.2981 14.0514 9.7358 13.8077C7.3642 12.7875 5.8179 10.413 5.7 10.255C5.5821 10.0971 4.73413 8.98206 4.73413 7.82193C4.73413 6.6618 5.34177 6.09302 5.55943 5.85828C5.77709 5.62355 6.03103 5.56486 6.18974 5.56486C6.34845 5.56486 6.50716 5.56486 6.6432 5.57389C6.78831 5.5784 6.98329 5.51521 7.17375 5.97565C7.37327 6.44512 7.84487 7.60525 7.90382 7.72262C7.96277 7.83999 7.99904 7.97541 7.92196 8.1334C7.84487 8.2914 7.80406 8.39071 7.68616 8.52614C7.56826 8.66156 7.43675 8.8331 7.33246 8.93692C7.21456 9.05429 7.09212 9.18068 7.22816 9.41542C7.36873 9.65016 7.84033 10.4221 8.5432 11.045C9.44558 11.8485 10.2074 12.0968 10.4432 12.2142C10.679 12.3316 10.8196 12.3135 10.9556 12.1555C11.0916 12.002 11.5451 11.4694 11.7038 11.2346C11.858 10.9999 12.0167 11.0405 12.2344 11.1173Z" fill="#1FC080"/>
<path fill-rule="evenodd" clip-rule="evenodd" d="M16.2248 3.26265C14.4427 1.47957 12.0666 0.5 9.53628 0.5C4.32601 0.5 0.0816229 4.72523 0.0770883 9.91198C0.0770883 11.5732 0.512411 13.1892 1.33771 14.6202L0 19.5L5.01527 18.1909C6.39833 18.9403 7.9537 19.3375 9.53628 19.3375H9.54081C14.7511 19.3375 18.9955 15.1123 19 9.921C18.9955 7.40663 18.0115 5.04122 16.2248 3.26265ZM5.53222 16.6516C6.73842 17.3648 8.12148 17.744 9.53628 17.744C13.8668 17.744 17.3947 14.2365 17.3993 9.91649C17.3993 7.82644 16.5831 5.86279 15.1002 4.38216C13.6129 2.90603 11.6403 2.08898 9.54081 2.08898C5.20573 2.08898 1.6778 5.60097 1.6778 9.90746C1.6778 11.3836 2.09045 12.8236 2.87947 14.0695L3.06539 14.3674L2.27184 17.2565L5.24654 16.48L5.53222 16.6516Z" fill="#1FC080"/>
</svg>
