<svg width="20" height="20" viewBox="0 0 20 20" fill="none" xmlns="http://www.w3.org/2000/svg">
<path d="M14.2806 8.28063L9.03063 13.5306C8.96097 13.6004 8.87826 13.6557 8.78721 13.6934C8.69616 13.7312 8.59857 13.7506 8.5 13.7506C8.40144 13.7506 8.30385 13.7312 8.2128 13.6934C8.12175 13.6557 8.03903 13.6004 7.96938 13.5306L5.71938 11.2806C5.57865 11.1399 5.49959 10.949 5.49959 10.75C5.49959 10.551 5.57865 10.3601 5.71938 10.2194C5.86011 10.0786 6.05098 9.99958 6.25 9.99958C6.44903 9.99958 6.6399 10.0786 6.78063 10.2194L8.5 11.9397L13.2194 7.21937C13.2891 7.14969 13.3718 7.09442 13.4628 7.0567C13.5539 7.01899 13.6515 6.99958 13.75 6.99958C13.8486 6.99958 13.9461 7.01899 14.0372 7.0567C14.1282 7.09442 14.2109 7.14969 14.2806 7.21937C14.3503 7.28906 14.4056 7.37178 14.4433 7.46283C14.481 7.55387 14.5004 7.65145 14.5004 7.75C14.5004 7.84855 14.481 7.94613 14.4433 8.03717C14.4056 8.12822 14.3503 8.21094 14.2806 8.28063Z" fill="white"/>
</svg>
